<svg width="22" height="22" viewBox="0 0 22 22" fill="none" xmlns="http://www.w3.org/2000/svg">
<g clip-path="url(#clip0_792_4565)">
<path d="M14.6432 2.81944C13.9557 2.68194 13.3369 2.88819 12.7869 3.23194C12.3057 3.50694 11.7557 3.50694 11.2744 3.23194C10.7244 2.88819 10.1057 2.68194 9.41817 2.81944C7.76817 3.02569 6.66817 4.81319 6.87442 6.66944C7.08067 8.52569 8.86817 11.8944 10.4494 11.6194C10.6557 11.5507 10.8619 11.4819 11.0682 11.3444C11.6182 10.9319 12.4432 10.9319 12.9244 11.3444C13.1307 11.4819 13.3369 11.6194 13.5432 11.6194C15.1244 11.8944 16.9119 8.59444 17.1182 6.66944C17.3932 4.81319 16.2932 3.02569 14.6432 2.81944Z" stroke="white" stroke-miterlimit="10" stroke-linecap="round" stroke-linejoin="round"/>
<path d="M10.0371 0.6875L10.1746 0.75625C11.0684 1.2375 11.6184 1.925 11.6184 2.75" stroke="white" stroke-miterlimit="10" stroke-linecap="round" stroke-linejoin="round"/>
<path d="M21.3125 16.5H7.21875C5.9125 16.5 4.8125 15.4 4.8125 14.0938C4.8125 12.7875 5.9125 11.6875 7.21875 11.6875H21.3125" stroke="white" stroke-miterlimit="10" stroke-linecap="round" stroke-linejoin="round"/>
<path d="M20.6254 11.6875C19.7316 13.2 19.7316 14.9875 20.6254 16.5" stroke="white" stroke-miterlimit="10" stroke-linecap="round" stroke-linejoin="round"/>
<path d="M17.1875 21.3125H3.09375C1.7875 21.3125 0.6875 20.2125 0.6875 18.9062C0.6875 17.6 1.7875 16.5 3.09375 16.5H17.1875" stroke="white" stroke-miterlimit="10" stroke-linecap="round" stroke-linejoin="round"/>
<path d="M16.5004 16.5C15.6066 18.0125 15.6066 19.8 16.5004 21.3125" stroke="white" stroke-miterlimit="10" stroke-linecap="round" stroke-linejoin="round"/>
</g>
<defs>
<clipPath id="clip0_792_4565">
<rect width="22" height="22" fill="white"/>
</clipPath>
</defs>
</svg>
