<svg width="22" height="22" viewBox="0 0 22 22" fill="none" xmlns="http://www.w3.org/2000/svg">
<g clip-path="url(#clip0_792_4563)">
<path d="M21.5003 14.6323V14.6323C21.5708 14.6337 21.7209 14.6489 21.8553 14.7492C21.9952 14.8538 22.1004 15.0373 22.1 15.3392M21.5003 14.6323L22 15.339M21.5003 14.6323H21.4983H21.4169C21.1298 14.6323 20.9596 14.7528 20.8661 14.9005C20.7773 15.0407 20.765 15.1934 20.7636 15.2548L20.7636 15.2548V15.2571V15.9914C20.7446 15.9826 20.7236 15.9697 20.704 15.9559C20.6928 15.9481 20.6831 15.9407 20.6757 15.9348L20.6666 15.9274L20.6638 15.9251L20.663 15.9244L20.6628 15.9242L20.6627 15.9241L20.6627 15.9241L20.661 15.9227L18.7742 14.3118L11.6617 2.40808L11.6535 2.39433L11.6414 2.38383C11.4252 2.19632 11.2043 2.19267 11.0395 2.23986C10.8806 2.28533 10.7747 2.37683 10.7657 2.38508L10.7565 2.39359L10.7496 2.40413L2.81385 14.568L2.73133 14.6393L2.73124 14.6392L2.72746 14.6428C2.70358 14.6657 2.6786 14.6936 2.65499 14.7213L1.35572 15.8316C1.35568 15.8316 1.35563 15.8317 1.35558 15.8317C1.29681 15.8817 1.25886 15.9022 1.23771 15.9097C1.23751 15.9084 1.23736 15.9072 1.23725 15.9062L1.23711 15.9045M21.5003 14.6323L1.23711 15.9045M22.1 15.3392L22 15.339M22.1 15.3392V15.339H22M22.1 15.3392V17.1999V17.8934V18.2042H22V17.8934V17.1999V15.339M1.23711 15.9045V15.1921C1.23711 14.9484 1.13197 14.8013 1.0001 14.7204C0.875974 14.6442 0.739271 14.6333 0.677237 14.6323L0.677237 14.6323H0.675612L0.552216 14.6323L0.551576 14.6323L0.550316 14.6323L0.544196 14.6323C0.539121 14.6324 0.532081 14.6326 0.523355 14.633C0.505935 14.6337 0.481605 14.6355 0.452625 14.6392C0.395195 14.6466 0.316808 14.6622 0.236995 14.6958C0.157119 14.7294 0.0721268 14.7826 0.00698039 14.8672C-0.0591899 14.953 -0.1 15.0649 -0.1 15.2062V16.0564V17.1206V18.2667H0L-0.1 18.2668L-0.0999998 18.2669L-0.0999992 18.2672L-0.0999957 18.2678L-0.0999747 18.2698L-0.0998336 18.2762C-0.0996794 18.2816 -0.0993825 18.289 -0.0988112 18.2983C-0.0976706 18.3167 -0.0954252 18.3425 -0.0909899 18.3732C-0.0821934 18.4342 -0.0644175 18.5172 -0.0278904 18.6016C0.00864524 18.686 0.0655748 18.7755 0.154585 18.844C0.244965 18.9136 0.362542 18.957 0.51104 18.957H0.626067V18.957L0.62858 18.957C0.690261 18.9554 0.841269 18.942 0.979153 18.8453C1.12349 18.744 1.23711 18.5632 1.23711 18.2607V17.756C1.23711 17.5407 1.29582 17.3877 1.35211 17.2901C1.38042 17.2409 1.40837 17.2054 1.4285 17.1827C1.43855 17.1714 1.44663 17.1633 1.45176 17.1584L1.45712 17.1535L1.45733 17.1533L1.45747 17.1532L1.4576 17.1531L1.45779 17.1529L1.45791 17.1528L1.45881 17.152L2.38298 16.3621C2.39149 16.3553 2.40386 16.3459 2.41778 16.3366L2.41776 18.3337L2.4178 18.3356C2.41919 18.4094 2.43504 18.5645 2.53818 18.7032C2.64551 18.8476 2.83413 18.9567 3.14523 18.9567H7.01458H7.22143C7.58384 18.9567 7.82058 18.8401 7.9688 18.7134C8.11181 18.5912 8.1668 18.4646 8.1765 18.4395L10.9005 11.7135L10.9036 11.7082C10.9074 11.7018 10.9131 11.6927 10.9203 11.6827C10.9358 11.6609 10.9531 11.6416 10.9685 11.6311C10.9708 11.6296 10.9726 11.6284 10.9741 11.6276C10.9815 11.634 10.9999 11.6538 11.0227 11.7086C11.0227 11.7086 11.0227 11.7086 11.0227 11.7087L13.7883 18.3775L13.7885 18.3781L13.7911 18.3845C13.7932 18.3897 13.7962 18.3967 13.8002 18.4053C13.8083 18.4224 13.8203 18.4459 13.8373 18.4735C13.8711 18.5287 13.9247 18.6011 14.0049 18.6731C14.167 18.8187 14.4317 18.9567 14.8444 18.9567H14.9043H18.7148C19.0501 18.9567 19.2533 18.8488 19.3703 18.704C19.4838 18.5635 19.502 18.405 19.5042 18.3282L19.5043 18.3282V18.3254V16.5436L19.5049 16.5394C19.506 16.5333 19.5079 16.5247 19.5111 16.5154C19.5181 16.4946 19.5274 16.4807 19.5361 16.4742L19.5361 16.4742C19.5398 16.4714 19.553 16.4616 19.594 16.4727C19.6395 16.485 19.7122 16.5222 19.8189 16.6133L20.5557 17.2424L20.5558 17.2424L20.5558 17.2425L20.5559 17.2425L20.556 17.2426L20.556 17.2426L1.23711 15.9045ZM21.3976 18.9567H21.3999V18.8567L21.3951 18.9566C21.3959 18.9566 21.3967 18.9567 21.3976 18.9567ZM20.7609 16.0229C20.7608 16.0229 20.761 16.0223 20.7614 16.0214L20.7609 16.0229ZM1.23707 15.9042L1.23706 15.904L1.23707 15.9042ZM10.9781 11.6259C10.9781 11.6259 10.9778 11.6261 10.9771 11.6262L10.9781 11.6259ZM2.41658 16.2793C2.4166 16.2793 2.41672 16.2797 2.41687 16.2805L2.41658 16.2793ZM11.0329 10.5806L11.032 10.5807H10.9536V10.5804L10.9458 10.581C10.8489 10.5885 10.6936 10.623 10.5223 10.7481C10.3512 10.8731 10.1695 11.0844 10.0133 11.4375L7.37075 17.4032C7.37065 17.4035 7.37054 17.4037 7.37043 17.4039C7.31313 17.5276 7.08445 17.9268 6.53092 17.9268H4.19468C3.8589 17.9268 3.69531 17.8122 3.61148 17.6997C3.52408 17.5823 3.50952 17.4487 3.50786 17.3897V15.9159C3.51004 15.8306 3.54391 15.4437 4.00131 15.0443L4.01301 15.0341L4.02106 15.0208L10.8871 3.68276C10.8881 3.68198 10.8891 3.68116 10.8902 3.68029C10.9001 3.67254 10.9151 3.66139 10.9344 3.64885C10.9734 3.62356 11.0284 3.59378 11.0934 3.57415C11.2162 3.5371 11.3777 3.53414 11.5482 3.68066L18.016 15.227L18.0241 15.2414L18.0364 15.2524C18.065 15.2782 18.4291 15.6249 18.4291 16.1369L18.4287 17.5278C18.42 17.6013 18.3905 17.6954 18.3012 17.7729C18.2092 17.8528 18.0398 17.9274 17.7256 17.9274H15.3489C14.7918 17.9274 14.6014 17.5839 14.5543 17.4778C14.5542 17.4776 14.5541 17.4774 14.5541 17.4772L14.54 17.4441L14.5386 17.4403L14.5386 17.4403L14.5373 17.4373L11.9305 11.2929L11.9304 11.2927C11.7776 10.9342 11.5588 10.7533 11.3714 10.664C11.2788 10.6199 11.1956 10.599 11.1347 10.5892C11.1042 10.5843 11.0792 10.5821 11.0612 10.5812C11.0522 10.5808 11.0449 10.5806 11.0395 10.5806L11.0329 10.5806Z" fill="white" stroke="white" stroke-width="0.2"/>
</g>
<defs>
<clipPath id="clip0_792_4563">
<rect width="22" height="22" fill="white"/>
</clipPath>
</defs>
</svg>
