<svg width="24" height="24" viewBox="0 0 24 24" fill="none" xmlns="http://www.w3.org/2000/svg">
<g clip-path="url(#clip0_304_1374)">
<path d="M22.875 10.125V10.875C22.875 11.0739 22.796 11.2647 22.6553 11.4053C22.5147 11.546 22.3239 11.625 22.125 11.625H21.75C21.5511 11.625 21.3603 11.704 21.2197 11.8447C21.079 11.9853 21 12.1761 21 12.375V20.625C21 21.2217 20.7629 21.794 20.341 22.216C19.919 22.6379 19.3467 22.875 18.75 22.875H5.25C4.65326 22.875 4.08097 22.6379 3.65901 22.216C3.23705 21.794 3 21.2217 3 20.625V12.375C3 12.1761 2.92098 11.9853 2.78033 11.8447C2.63968 11.704 2.44891 11.625 2.25 11.625H1.875C1.67609 11.625 1.48532 11.546 1.34467 11.4053C1.20402 11.2647 1.125 11.0739 1.125 10.875V10.125C1.125 9.92609 1.20402 9.73532 1.34467 9.59467C1.48532 9.45402 1.67609 9.375 1.875 9.375H22.125C22.3239 9.375 22.5147 9.45402 22.6553 9.59467C22.796 9.73532 22.875 9.92609 22.875 10.125Z" stroke="#368733" stroke-linejoin="round"/>
<path d="M3 14.25C4.8 14.25 4.8 15.75 6.6 15.75C8.4 15.75 8.4 14.25 10.2 14.25C12 14.25 11.9963 15.75 13.7963 15.75C15.5963 15.75 15.5963 14.25 17.4 14.25C19.2038 14.25 19.2 15.75 21 15.75" stroke="#368733" stroke-linejoin="round"/>
<path d="M10.125 18C10.5392 18 10.875 17.6642 10.875 17.25C10.875 16.8358 10.5392 16.5 10.125 16.5C9.71079 16.5 9.375 16.8358 9.375 17.25C9.375 17.6642 9.71079 18 10.125 18Z" stroke="#368733" stroke-linejoin="round"/>
<path d="M13.125 19.875C13.3321 19.875 13.5 19.7071 13.5 19.5C13.5 19.2929 13.3321 19.125 13.125 19.125C12.9179 19.125 12.75 19.2929 12.75 19.5C12.75 19.7071 12.9179 19.875 13.125 19.875Z" fill="#368733"/>
<path d="M16.5 19.125C17.1213 19.125 17.625 18.6213 17.625 18C17.625 17.3787 17.1213 16.875 16.5 16.875C15.8787 16.875 15.375 17.3787 15.375 18C15.375 18.6213 15.8787 19.125 16.5 19.125Z" stroke="#368733" stroke-miterlimit="10"/>
<path d="M22.0921 6.70455C21.9684 5.26455 17.8471 4.45455 12.8859 4.8708C7.92465 5.28705 4.00215 6.8133 4.1259 8.24955L4.1559 8.62455L22.1259 7.0758L22.0921 6.70455Z" stroke="#368733" stroke-linejoin="round"/>
<path d="M11.3843 4.99912C11.3505 4.6013 11.4761 4.20634 11.7335 3.90112C11.9909 3.5959 12.359 3.40544 12.7568 3.37162C13.1546 3.33781 13.5496 3.46341 13.8548 3.72081C14.16 3.9782 14.3505 4.3463 14.3843 4.74412" stroke="#368733" stroke-linejoin="round"/>
<path d="M5.25 4.5C5.44891 4.5 5.63968 4.42098 5.78033 4.28033C5.92098 4.13968 6 3.94891 6 3.75C6 3.55109 5.92098 3.36032 5.78033 3.21967C5.63968 3.07902 5.44891 3 5.25 3C5.05109 3 4.86032 2.92098 4.71967 2.78033C4.57902 2.63968 4.5 2.44891 4.5 2.25C4.5 1.95163 4.38147 1.66548 4.1705 1.4545C3.95952 1.24353 3.67337 1.125 3.375 1.125C3.07663 1.125 2.79048 1.24353 2.5795 1.4545C2.36853 1.66548 2.25 1.95163 2.25 2.25C1.95163 2.25 1.66548 2.36853 1.4545 2.5795C1.24353 2.79048 1.125 3.07663 1.125 3.375C1.125 3.67337 1.24353 3.95952 1.4545 4.1705C1.66548 4.38147 1.95163 4.5 2.25 4.5C2.34946 4.5 2.44484 4.53951 2.51516 4.60984C2.58549 4.68016 2.625 4.77554 2.625 4.875L3 7.125" stroke="#368733" stroke-linecap="round" stroke-linejoin="round"/>
<path d="M21.75 4.125C22.1642 4.125 22.5 3.78921 22.5 3.375C22.5 2.96079 22.1642 2.625 21.75 2.625C21.3358 2.625 21 2.96079 21 3.375C21 3.78921 21.3358 4.125 21.75 4.125Z" stroke="#368733" stroke-linecap="round" stroke-linejoin="round"/>
<path d="M19.875 1.875C20.0821 1.875 20.25 1.70711 20.25 1.5C20.25 1.29289 20.0821 1.125 19.875 1.125C19.6679 1.125 19.5 1.29289 19.5 1.5C19.5 1.70711 19.6679 1.875 19.875 1.875Z" stroke="#368733" stroke-linecap="round" stroke-linejoin="round"/>
</g>
<defs>
<clipPath id="clip0_304_1374">
<rect width="24" height="24" fill="white"/>
</clipPath>
</defs>
</svg>
