<svg width="20" height="20" viewBox="0 0 20 20" fill="none" xmlns="http://www.w3.org/2000/svg">
<path d="M4.5 8.66667H6.16667C7.83333 8.66667 8.66667 7.83333 8.66667 6.16667V4.5C8.66667 2.83333 7.83333 2 6.16667 2H4.5C2.83333 2 2 2.83333 2 4.5V6.16667C2 7.83333 2.83333 8.66667 4.5 8.66667Z" stroke="#7E7E7E" stroke-miterlimit="10" stroke-linecap="round" stroke-linejoin="round"/>
<path d="M13.166 8.66667H14.8327C16.4993 8.66667 17.3327 7.83333 17.3327 6.16667V4.5C17.3327 2.83333 16.4993 2 14.8327 2H13.166C11.4993 2 10.666 2.83333 10.666 4.5V6.16667C10.666 7.83333 11.4993 8.66667 13.166 8.66667Z" stroke="#7E7E7E" stroke-miterlimit="10" stroke-linecap="round" stroke-linejoin="round"/>
<path d="M13.166 17.3327H14.8327C16.4993 17.3327 17.3327 16.4993 17.3327 14.8327V13.166C17.3327 11.4993 16.4993 10.666 14.8327 10.666H13.166C11.4993 10.666 10.666 11.4993 10.666 13.166V14.8327C10.666 16.4993 11.4993 17.3327 13.166 17.3327Z" stroke="#7E7E7E" stroke-miterlimit="10" stroke-linecap="round" stroke-linejoin="round"/>
<path d="M4.5 17.3327H6.16667C7.83333 17.3327 8.66667 16.4993 8.66667 14.8327V13.166C8.66667 11.4993 7.83333 10.666 6.16667 10.666H4.5C2.83333 10.666 2 11.4993 2 13.166V14.8327C2 16.4993 2.83333 17.3327 4.5 17.3327Z" stroke="#7E7E7E" stroke-miterlimit="10" stroke-linecap="round" stroke-linejoin="round"/>
</svg>
