<svg width="50" height="50" viewBox="0 0 50 50" fill="none" xmlns="http://www.w3.org/2000/svg">
<path d="M47.7539 24.9902C47.7539 24.9707 47.7539 24.9414 47.7539 24.9219C47.7539 24.7656 47.7539 24.6094 47.7441 24.4629C47.7441 24.375 47.7344 24.2871 47.7344 24.1895C47.7344 24.1016 47.7246 24.0137 47.7246 23.9258C47.7148 23.8184 47.7148 23.7109 47.7051 23.6035C47.7051 23.5352 47.6953 23.4668 47.6953 23.3984C47.6855 23.2813 47.6758 23.1641 47.666 23.0469C47.666 22.998 47.6562 22.9395 47.6562 22.8906C47.6465 22.7637 47.627 22.6367 47.6172 22.5C47.6172 22.4707 47.6074 22.4316 47.6074 22.4023C46.3184 11.0547 36.6895 2.23633 25 2.23633C13.3105 2.23633 3.68164 11.0547 2.39258 22.4121C2.39258 22.4414 2.38281 22.4805 2.38281 22.5098C2.37305 22.6367 2.35352 22.7637 2.34375 22.9004C2.33398 22.9492 2.33398 23.0078 2.33398 23.0566C2.32422 23.1738 2.31445 23.291 2.30469 23.4082C2.30469 23.4766 2.29492 23.5449 2.29492 23.6133C2.28516 23.7207 2.28516 23.8281 2.27539 23.9355C2.27539 24.0234 2.26563 24.1113 2.26563 24.1992C2.26563 24.2871 2.25586 24.375 2.25586 24.4727C2.25586 24.6289 2.24609 24.7852 2.24609 24.9316C2.24609 24.9512 2.24609 24.9805 2.24609 25C2.24609 25 2.24609 25 2.24609 25.0098C2.24609 25.0195 2.24609 25.0098 2.24609 25.0195C2.24609 25.0391 2.24609 25.0684 2.24609 25.0879C2.24609 25.2441 2.24609 25.4004 2.25586 25.5469C2.25586 25.6348 2.26563 25.7227 2.26563 25.8203C2.26563 25.9082 2.27539 25.9961 2.27539 26.084C2.28516 26.1914 2.28516 26.2988 2.29492 26.4062C2.29492 26.4746 2.30469 26.543 2.30469 26.6113C2.31445 26.7285 2.32422 26.8457 2.33398 26.9629C2.33398 27.0117 2.34375 27.0703 2.34375 27.1191C2.35352 27.2461 2.37305 27.373 2.38281 27.5098C2.38281 27.5391 2.39258 27.5781 2.39258 27.6074C3.68164 38.9453 13.3105 47.7637 25 47.7637C36.6895 47.7637 46.3184 38.9453 47.6074 27.5977C47.6074 27.5684 47.6172 27.5293 47.6172 27.5C47.627 27.373 47.6465 27.2461 47.6562 27.1094C47.666 27.0605 47.666 27.002 47.666 26.9531C47.6758 26.8359 47.6855 26.7188 47.6953 26.6016C47.6953 26.5332 47.7051 26.4648 47.7051 26.3965C47.7148 26.2891 47.7148 26.1816 47.7246 26.0742C47.7246 25.9863 47.7344 25.8984 47.7344 25.8105C47.7344 25.7227 47.7441 25.6348 47.7441 25.5371C47.7441 25.3809 47.7539 25.2246 47.7539 25.0781C47.7539 25.0586 47.7539 25.0293 47.7539 25.0098C47.7539 25 47.7539 25 47.7539 24.9902C47.7539 25 47.7539 25 47.7539 24.9902Z" fill="#368733"/>
<path d="M19.3945 36.5854L38.9925 17" stroke="white" stroke-width="4" stroke-miterlimit="10"/>
<path d="M21.9308 36.7111L12 26.7803" stroke="white" stroke-width="4" stroke-miterlimit="10"/>
</svg>
