<svg width="20" height="25" viewBox="0 0 20 25" fill="none" xmlns="http://www.w3.org/2000/svg">
<path d="M10.3548 24.9997C10.0191 24.9968 9.68779 24.9238 9.38198 24.7854C9.07617 24.6471 8.80263 24.4463 8.57887 24.1961C5.64584 20.9819 0.711908 14.8667 0.711908 10.8247C0.6754 8.22945 1.6704 5.72579 3.47839 3.86356C5.28638 2.00132 7.75955 0.932777 10.3548 0.892578C12.95 0.932777 15.4231 2.00132 17.2311 3.86356C19.0391 5.72579 20.0341 8.22945 19.9976 10.8247C19.9976 14.8426 15.0637 20.9417 12.1307 24.2042C11.9062 24.4529 11.6323 24.6521 11.3265 24.7891C11.0208 24.9261 10.6898 24.9978 10.3548 24.9997ZM10.3548 2.49972C8.18647 2.54197 6.1233 3.44183 4.61714 5.00221C3.11098 6.56259 2.28462 8.65629 2.31905 10.8247C2.31905 13.3479 5.10744 17.9444 9.77619 23.1274C9.85115 23.2052 9.94102 23.267 10.0404 23.3093C10.1398 23.3515 10.2467 23.3733 10.3548 23.3733C10.4628 23.3733 10.5697 23.3515 10.6691 23.3093C10.7685 23.267 10.8584 23.2052 10.9333 23.1274C15.6021 17.9444 18.3905 13.3479 18.3905 10.8247C18.4249 8.65629 17.5985 6.56259 16.0924 5.00221C14.5862 3.44183 12.5231 2.54197 10.3548 2.49972Z" fill="#368733"/>
<path d="M10.3546 15.3567C9.40104 15.3567 8.46887 15.074 7.67599 14.5442C6.88311 14.0144 6.26514 13.2614 5.90021 12.3804C5.53529 11.4994 5.43981 10.5299 5.62585 9.59468C5.81188 8.65942 6.27108 7.80032 6.94537 7.12603C7.61966 6.45174 8.47875 5.99255 9.41402 5.80651C10.3493 5.62048 11.3187 5.71596 12.1997 6.08088C13.0807 6.4458 13.8337 7.06378 14.3635 7.85666C14.8933 8.64954 15.1761 9.58171 15.1761 10.5353C15.1761 11.814 14.6681 13.0404 13.7639 13.9446C12.8597 14.8488 11.6334 15.3567 10.3546 15.3567ZM10.3546 7.32101C9.71891 7.32101 9.09746 7.50953 8.56887 7.86272C8.04029 8.21591 7.6283 8.71791 7.38502 9.30524C7.14174 9.89258 7.07809 10.5389 7.20211 11.1624C7.32613 11.7859 7.63226 12.3586 8.08179 12.8081C8.53132 13.2577 9.10405 13.5638 9.72756 13.6878C10.3511 13.8118 10.9974 13.7482 11.5847 13.5049C12.172 13.2616 12.674 12.8496 13.0272 12.3211C13.3804 11.7925 13.5689 11.171 13.5689 10.5353C13.5689 9.68282 13.2303 8.86525 12.6275 8.26245C12.0247 7.65966 11.2071 7.32101 10.3546 7.32101Z" fill="#368733"/>
</svg>
