<svg width="175" height="58" viewBox="0 0 175 58" fill="none" xmlns="http://www.w3.org/2000/svg">
<g clip-path="url(#clip0_591_435)">
<path d="M174.56 27.8237C174.739 27.528 174.798 27.2323 174.679 26.8774C174.56 26.5817 174.381 26.3451 174.023 26.2269L172.057 25.5172C171.937 25.458 171.759 25.3989 171.52 25.3989C170.924 25.3989 170.507 25.6355 170.15 26.0494C167.944 28.9473 164.965 30.4259 161.27 30.4259C158.111 30.4259 155.429 29.3613 153.284 27.1731C151.138 24.9849 150.065 22.2644 150.065 19.0117C150.065 15.759 151.138 13.0385 153.284 10.9094C155.429 8.72122 158.051 7.65669 161.27 7.65669C164.965 7.65669 167.944 9.1352 170.15 12.0331C170.507 12.5062 170.924 12.7428 171.52 12.7428C171.639 12.7428 171.818 12.6836 172.057 12.6245L174.023 11.8557C174.381 11.7374 174.619 11.5008 174.679 11.2051C174.798 10.9094 174.739 10.5546 174.56 10.2589C173.129 8.07067 171.282 6.41473 168.958 5.17278C166.633 3.93082 164.071 3.28027 161.27 3.28027C156.74 3.28027 152.986 4.75879 149.946 7.77497C146.907 10.7911 145.417 14.517 145.417 19.0117C145.417 23.5064 146.907 27.2914 149.946 30.2484C152.986 33.2646 156.74 34.7431 161.27 34.7431C164.071 34.7431 166.633 34.0926 169.017 32.8506C171.282 31.6678 173.189 29.9527 174.56 27.8237ZM116.631 3.87168C116.274 3.87168 116.035 3.98996 115.916 4.22652C115.797 4.46309 115.797 4.69965 115.976 4.99535L128.372 26.5226C126.882 28.8882 125.035 30.071 122.889 30.071H121.399C121.042 30.071 120.744 30.1893 120.505 30.4259C120.267 30.6624 120.148 31.0173 120.148 31.3721V32.9689C120.148 33.3238 120.267 33.6195 120.505 33.856C120.744 34.0926 121.042 34.2109 121.399 34.2109H123.187C127.478 34.2109 130.816 31.6678 133.199 26.6409L143.569 4.99535C143.748 4.64051 143.748 4.40395 143.569 4.16738C143.45 3.93082 143.212 3.81254 142.795 3.81254H140.589C139.695 3.81254 139.1 4.22652 138.742 4.99535L130.696 21.9096L120.922 4.99535C120.505 4.22652 119.85 3.87168 119.015 3.87168H116.631ZM102.328 19.544C103.878 19.544 105.129 20.0762 106.142 21.0225C107.155 22.0279 107.632 23.2698 107.632 24.8075C107.632 26.286 107.096 27.5871 106.142 28.5925C105.129 29.5979 103.878 30.1302 102.328 30.1302H93.3886V19.544H102.328ZM90.1703 34.27H102.328C105.189 34.27 107.573 33.3829 109.539 31.5495C111.446 29.7753 112.4 27.4688 112.4 24.8075C112.4 22.087 111.446 19.8397 109.539 18.0654C107.632 16.2912 105.248 15.345 102.328 15.345H93.3886V8.07067H108.347C108.705 8.07067 109.003 7.95239 109.241 7.71583C109.48 7.47926 109.599 7.12442 109.599 6.76957V5.11364C109.599 4.75879 109.48 4.46309 109.241 4.22652C109.003 3.98996 108.705 3.87168 108.347 3.87168H90.1703C89.8128 3.87168 89.5148 3.98996 89.2168 4.22652C88.9784 4.46309 88.8592 4.75879 88.8592 5.11364V32.9689C88.8592 33.3238 88.9784 33.6195 89.2168 33.856C89.5148 34.1517 89.8128 34.27 90.1703 34.27ZM18.7135 31.0764V33.3238C18.7135 33.6195 18.8327 33.7969 19.0115 33.9743C19.1902 34.1517 19.4286 34.27 19.7266 34.27H19.9054C26.1035 34.27 29.2026 29.0656 29.2026 18.6569V8.07067H42.1947V33.028C42.1947 33.3829 42.3139 33.6786 42.5523 33.9152C42.7907 34.1517 43.0887 34.27 43.4462 34.27H45.4129C45.7705 34.27 46.0685 34.1517 46.3665 33.9152C46.6049 33.6786 46.7241 33.3829 46.7241 33.028V5.11364C46.7241 4.75879 46.6049 4.46309 46.3665 4.22652C46.1281 3.98996 45.7705 3.87168 45.4129 3.87168H25.9843C25.6267 3.87168 25.3287 3.98996 25.0308 4.22652C24.7924 4.46309 24.6732 4.75879 24.6732 5.11364V18.5977C24.6732 22.915 24.256 25.872 23.4216 27.528C22.5873 29.1839 21.3953 30.0119 19.9054 30.0119H19.7266C19.4286 30.0119 19.2498 30.1302 19.0115 30.3076C18.8327 30.5441 18.7135 30.7807 18.7135 31.0764ZM0 5.11364V32.9689C0 33.3238 0.119194 33.6195 0.357582 33.856C0.59597 34.0926 0.953553 34.2109 1.31114 34.2109H3.27784C3.63542 34.2109 3.9334 34.0926 4.17179 33.856C4.41018 33.6195 4.52938 33.3238 4.52938 32.9689V8.07067H18.4751C18.8923 8.07067 19.1902 7.95239 19.4286 7.71583C19.667 7.47926 19.7862 7.12442 19.7862 6.76957V5.11364C19.7862 4.75879 19.667 4.46309 19.4286 4.22652C19.1902 3.98996 18.8327 3.87168 18.4751 3.87168H1.31114C0.953553 3.87168 0.655568 3.98996 0.357582 4.22652C0.119194 4.46309 0 4.75879 0 5.11364Z" fill="#D0FACE"/>
<path fill-rule="evenodd" clip-rule="evenodd" d="M69.0723 9.19415C69.4298 8.78017 69.847 8.36618 70.145 7.9522C68.9531 7.6565 67.7611 7.53821 66.5692 7.59735C66.9268 7.77478 67.2247 7.9522 67.5823 8.12962C68.1187 8.48446 68.5955 8.83931 69.0723 9.19415ZM65.1984 7.83392C64.1853 8.07048 63.1721 8.42532 62.2186 8.95759L64.4833 12.8017C65.854 11.9738 67.2247 11.0275 68.3571 9.90384C68.4167 9.8447 68.4763 9.78556 68.5359 9.72642C68.1187 9.37158 67.6419 9.07587 67.1651 8.78017C66.5692 8.36618 65.9136 8.07048 65.1984 7.83392ZM59.1195 15.1082C59.1791 15.1082 59.2983 15.0491 59.3579 15.0491C60.9075 14.576 62.3974 13.9254 63.8277 13.1566L61.563 9.31243C60.6691 9.8447 59.8347 10.4952 59.1195 11.2641C59.0003 11.9738 59.0003 12.7426 59.0003 13.4523C59.0003 14.0437 59.0599 14.576 59.1195 15.1082ZM64.2449 13.8071C62.755 14.6351 61.2054 15.2856 59.5963 15.7588C59.4771 15.8179 59.3579 15.8179 59.2387 15.8771C59.6559 18.0061 60.4903 20.1352 61.563 22.0277L67.1055 18.8341L64.2449 13.8071ZM69.1318 10.1995C69.0722 10.2587 68.9531 10.377 68.8935 10.4361C67.7015 11.5598 66.3308 12.5652 64.8409 13.4523L67.7611 18.4792L73.3036 15.2856C72.2309 13.3931 70.8006 11.6189 69.1318 10.1995ZM69.6086 9.66728C71.3369 11.1458 72.7673 12.9792 73.8996 14.8717L76.9391 13.0974C75.5087 10.7318 73.4824 9.01673 70.8006 8.12962C70.5026 8.72103 70.0854 9.19415 69.6086 9.66728ZM58.5832 15.9953C57.9276 16.1728 57.272 16.291 56.6165 16.3502C56.0205 19.0707 56.5569 21.6728 57.868 24.0976L60.9671 22.3234C59.8943 20.3717 59.0003 18.1835 58.5832 15.9953ZM76.7007 21.8503C77.3562 21.6728 78.0118 21.5546 78.6674 21.4954C79.2037 18.7749 78.727 16.1728 77.4158 13.748L74.3168 15.5222C75.3895 17.4739 76.2835 19.6029 76.7007 21.8503ZM71.0389 24.0385C72.5289 23.2105 74.0784 22.56 75.6875 22.0868C75.8067 22.0277 75.9259 22.0277 76.0451 21.9685C75.6279 19.8395 74.7936 17.7104 73.7208 15.8179L68.1783 19.0115L71.0389 24.0385ZM66.152 27.6461C66.2712 27.5278 66.3308 27.4686 66.45 27.3503C67.6419 26.2267 69.0126 25.2213 70.443 24.3933L67.5227 19.3664L61.9802 22.5599C63.0529 24.4525 64.4833 26.2267 66.152 27.6461ZM64.3641 29.6568C64.7813 29.1246 65.1984 28.6514 65.6156 28.1192C63.8873 26.6407 62.457 24.8073 61.3246 22.9148L58.2256 24.689C59.7155 27.0546 61.6822 28.7697 64.3641 29.6568ZM68.7147 30.1891C68.3571 30.0117 68.0591 29.8343 67.7015 29.6568C67.1651 29.3611 66.6884 29.0063 66.2116 28.5923C65.854 29.0063 65.4368 29.4203 65.1388 29.8934C66.2712 30.1891 67.4631 30.3074 68.7147 30.1891ZM70.741 25.0439C69.3702 25.8718 68.0591 26.8181 66.8672 27.9418C66.8076 28.0009 66.748 28.06 66.6288 28.1192C67.046 28.474 67.5227 28.7697 67.9995 29.0654C68.6551 29.4203 69.3106 29.7751 70.0258 30.0117C71.039 29.7751 72.0521 29.4203 73.0057 28.888L70.741 25.0439ZM76.1047 22.6782C75.9855 22.6782 75.9259 22.7374 75.8067 22.7374C74.2572 23.2105 72.7673 23.861 71.3369 24.6299L73.6016 28.474C74.4956 27.9418 75.3299 27.2912 76.0451 26.4632C76.1643 25.7535 76.2239 24.9847 76.2239 24.275C76.2835 23.8019 76.2239 23.2696 76.1047 22.6782ZM78.4886 22.2051C77.9522 22.2642 77.3562 22.3825 76.8199 22.5008C76.9391 23.0922 76.9987 23.6836 76.9987 24.3342C76.9987 24.689 76.9987 25.103 76.9987 25.4578C77.6542 24.4525 78.131 23.3879 78.4886 22.2051ZM58.2852 12.3286C57.57 13.334 57.0932 14.3985 56.7357 15.5813C57.272 15.5222 57.868 15.4039 58.4044 15.2856C58.2852 14.6942 58.2256 14.1028 58.2256 13.4523C58.2852 13.0974 58.2852 12.7426 58.2852 12.3286ZM59.3579 5.40915L58.2852 3.51665C54.2326 5.94142 51.3123 9.72642 50.0608 14.2803C48.8093 18.8932 49.4648 23.8019 51.8487 27.9418C54.2922 32.0816 58.2256 35.0978 62.8742 36.3397C67.4035 37.5225 72.2309 36.9311 76.3431 34.7429L75.2703 32.8504C71.5157 34.9204 67.5823 35.5118 63.4701 34.3881C59.1791 33.2644 56.0205 30.6622 53.8154 26.8772C51.6103 23.0922 50.8951 19.0707 52.0871 14.8125C53.1598 10.6727 55.6629 7.59735 59.3579 5.40915ZM75.9259 32.4364L77.3562 34.8612C77.4158 34.9204 77.3562 34.9795 77.2966 34.9795L77.0583 35.0978C72.7077 37.5817 67.5823 38.2322 62.755 36.9903C57.9276 35.6892 53.8154 32.5547 51.3123 28.2375C48.8093 23.9202 48.1537 18.8341 49.4052 14.0437C50.7164 9.25329 53.875 5.17259 58.2256 2.68868L58.4044 2.5704C58.464 2.51125 58.5236 2.5704 58.5236 2.62954L59.8943 5.0543C63.6489 2.98438 67.5823 2.39297 71.7541 3.51665C76.0451 4.64032 79.2037 7.24251 81.4684 11.0275C83.6735 14.8125 84.3291 18.8341 83.1968 23.0922C82.0644 27.1729 79.5613 30.2482 75.9259 32.4364Z" fill="#D0FACE"/>
<path d="M4.71361 54.2679H1.46572L0.76617 55.8252H0.124919L2.78986 49.9956H3.3978L6.06274 55.8252H5.41316L4.71361 54.2679ZM4.48876 53.7682L3.08966 50.6369L1.69057 53.7682H4.48876ZM9.6552 55.8752C9.0778 55.8752 8.55314 55.7475 8.08122 55.4921C7.61486 55.2311 7.24843 54.8758 6.98193 54.4261C6.72099 53.9764 6.59052 53.4712 6.59052 52.9104C6.59052 52.3497 6.72099 51.8444 6.98193 51.3947C7.24843 50.945 7.61486 50.5925 8.08122 50.3371C8.55314 50.0761 9.0778 49.9457 9.6552 49.9457C10.2326 49.9457 10.7517 50.0734 11.2125 50.3288C11.6789 50.5841 12.0453 50.9395 12.3118 51.3947C12.5783 51.8444 12.7116 52.3497 12.7116 52.9104C12.7116 53.4712 12.5783 53.9792 12.3118 54.4344C12.0453 54.8841 11.6789 55.2367 11.2125 55.4921C10.7517 55.7475 10.2326 55.8752 9.6552 55.8752ZM9.6552 55.3255C10.116 55.3255 10.5324 55.2228 10.9044 55.0174C11.2764 54.8064 11.5679 54.5177 11.7788 54.1513C11.9898 53.7793 12.0953 53.3657 12.0953 52.9104C12.0953 52.4552 11.9898 52.0443 11.7788 51.6779C11.5679 51.3059 11.2764 51.0172 10.9044 50.8118C10.5324 50.6008 10.116 50.4953 9.6552 50.4953C9.19439 50.4953 8.77522 50.6008 8.39768 50.8118C8.0257 51.0172 7.73145 51.3059 7.51492 51.6779C7.30395 52.0443 7.19846 52.4552 7.19846 52.9104C7.19846 53.3657 7.30395 53.7793 7.51492 54.1513C7.73145 54.5177 8.0257 54.8064 8.39768 55.0174C8.77522 55.2228 9.19439 55.3255 9.6552 55.3255ZM18.2938 53.1519H16.9613V55.8252H16.3617V49.9956H16.9613V52.6106H18.2938L20.2675 49.9956H20.9338L18.7685 52.8271L21.0587 55.8252H20.3508L18.2938 53.1519ZM24.5544 55.8752C23.977 55.8752 23.4523 55.7475 22.9804 55.4921C22.5141 55.2311 22.1476 54.8758 21.8811 54.4261C21.6202 53.9764 21.4897 53.4712 21.4897 52.9104C21.4897 52.3497 21.6202 51.8444 21.8811 51.3947C22.1476 50.945 22.5141 50.5925 22.9804 50.3371C23.4523 50.0761 23.977 49.9457 24.5544 49.9457C25.1318 49.9457 25.6509 50.0734 26.1117 50.3288C26.5781 50.5841 26.9445 50.9395 27.211 51.3947C27.4775 51.8444 27.6108 52.3497 27.6108 52.9104C27.6108 53.4712 27.4775 53.9792 27.211 54.4344C26.9445 54.8841 26.5781 55.2367 26.1117 55.4921C25.6509 55.7475 25.1318 55.8752 24.5544 55.8752ZM24.5544 55.3255C25.0152 55.3255 25.4316 55.2228 25.8036 55.0174C26.1756 54.8064 26.467 54.5177 26.678 54.1513C26.889 53.7793 26.9945 53.3657 26.9945 52.9104C26.9945 52.4552 26.889 52.0443 26.678 51.6779C26.467 51.3059 26.1756 51.0172 25.8036 50.8118C25.4316 50.6008 25.0152 50.4953 24.5544 50.4953C24.0936 50.4953 23.6744 50.6008 23.2969 50.8118C22.9249 51.0172 22.6306 51.3059 22.4141 51.6779C22.2031 52.0443 22.0977 52.4552 22.0977 52.9104C22.0977 53.3657 22.2031 53.7793 22.4141 54.1513C22.6306 54.5177 22.9249 54.8064 23.2969 55.0174C23.6744 55.2228 24.0936 55.3255 24.5544 55.3255ZM35.1358 49.9956V55.8252H34.5445V51.1616L32.2543 55.084H31.9628L29.6726 51.1865V55.8252H29.0813V49.9956H29.5894L32.121 54.3178L34.6278 49.9956H35.1358ZM37.1002 49.9956H41.3641V50.5203H37.7082V52.4274H39.6153C40.3037 52.4274 40.8256 52.569 41.1809 52.8521C41.5418 53.1353 41.7222 53.5461 41.7222 54.0847C41.7222 54.6454 41.5279 55.0757 41.1393 55.3755C40.7562 55.6753 40.2038 55.8252 39.482 55.8252H37.1002V49.9956ZM39.4737 55.3338C40.0122 55.3338 40.4175 55.2311 40.6896 55.0257C40.9672 54.8203 41.106 54.5149 41.106 54.1096C41.106 53.7099 40.97 53.4129 40.6979 53.2186C40.4314 53.0187 40.0233 52.9187 39.4737 52.9187H37.7082V55.3338H39.4737ZM43.151 49.9956H43.7589V54.8258L47.4899 49.9956H48.0478V55.8252H47.4399V51.0033L43.709 55.8252H43.151V49.9956ZM54.8869 49.9956V55.8252H54.2789V53.1353H50.6313V55.8252H50.015V49.9956H50.6313V52.594H54.2789V49.9956H54.8869ZM60.5856 54.2679H57.3377L56.6382 55.8252H55.9969L58.6619 49.9956H59.2698L61.9347 55.8252H61.2852L60.5856 54.2679ZM60.3608 53.7682L58.9617 50.6369L57.5626 53.7682H60.3608ZM66.5733 50.5286H64.5246V55.8252H63.9167V50.5286H61.868V49.9956H66.5733V50.5286ZM76.9799 49.9956V55.8252H69.8346V49.9956H70.4425V55.2922H73.1074V49.9956H73.7154V55.2922H76.372V49.9956H76.9799ZM80.8753 53.1519H79.5428V55.8252H78.9432V49.9956H79.5428V52.6106H80.8753L82.849 49.9956H83.5153L81.35 52.8271L83.6402 55.8252H82.9323L80.8753 53.1519ZM87.1359 55.8752C86.5585 55.8752 86.0338 55.7475 85.5619 55.4921C85.0956 55.2311 84.7291 54.8758 84.4626 54.4261C84.2017 53.9764 84.0712 53.4712 84.0712 52.9104C84.0712 52.3497 84.2017 51.8444 84.4626 51.3947C84.7291 50.945 85.0956 50.5925 85.5619 50.3371C86.0338 50.0761 86.5585 49.9457 87.1359 49.9457C87.7133 49.9457 88.2324 50.0734 88.6932 50.3288C89.1596 50.5841 89.526 50.9395 89.7925 51.3947C90.059 51.8444 90.1923 52.3497 90.1923 52.9104C90.1923 53.4712 90.059 53.9792 89.7925 54.4344C89.526 54.8841 89.1596 55.2367 88.6932 55.4921C88.2324 55.7475 87.7133 55.8752 87.1359 55.8752ZM87.1359 55.3255C87.5967 55.3255 88.0131 55.2228 88.3851 55.0174C88.7571 54.8064 89.0486 54.5177 89.2595 54.1513C89.4705 53.7793 89.576 53.3657 89.576 52.9104C89.576 52.4552 89.4705 52.0443 89.2595 51.6779C89.0486 51.3059 88.7571 51.0172 88.3851 50.8118C88.0131 50.6008 87.5967 50.4953 87.1359 50.4953C86.6751 50.4953 86.2559 50.6008 85.8784 50.8118C85.5064 51.0172 85.2122 51.3059 84.9956 51.6779C84.7847 52.0443 84.6792 52.4552 84.6792 52.9104C84.6792 53.3657 84.7847 53.7793 84.9956 54.1513C85.2122 54.5177 85.5064 54.8064 85.8784 55.0174C86.2559 55.2228 86.6751 55.3255 87.1359 55.3255ZM96.0722 49.9956V55.8252H95.4643V50.5286H92.6495L92.5828 52.4774C92.5551 53.2824 92.4885 53.932 92.383 54.4261C92.283 54.9147 92.1276 55.2811 91.9166 55.5254C91.7056 55.7641 91.4253 55.8835 91.0755 55.8835C90.9256 55.8835 90.7701 55.8641 90.6091 55.8252L90.6591 55.2756C90.7535 55.2978 90.8451 55.3089 90.9339 55.3089C91.1782 55.3089 91.3753 55.2117 91.5252 55.0174C91.6806 54.8231 91.7972 54.5233 91.875 54.118C91.9527 53.7071 92.0054 53.1658 92.0332 52.494L92.1165 49.9956H96.0722ZM100.479 52.0776C101.167 52.0776 101.692 52.2331 102.053 52.544C102.419 52.8549 102.603 53.3102 102.603 53.9098C102.603 54.5371 102.408 55.0146 102.02 55.3422C101.637 55.6642 101.081 55.8252 100.354 55.8252H98.0389V49.9956H98.6469V52.0776H100.479ZM100.337 55.3338C100.876 55.3338 101.284 55.2145 101.562 54.9757C101.845 54.737 101.986 54.3845 101.986 53.9181C101.986 53.0242 101.437 52.5773 100.337 52.5773H98.6469V55.3338H100.337ZM108.823 49.9956V55.8252H108.215V53.1353H104.568V55.8252H103.951V49.9956H104.568V52.594H108.215V49.9956H108.823ZM113.348 55.8752C112.77 55.8752 112.246 55.7475 111.774 55.4921C111.307 55.2311 110.941 54.8758 110.675 54.4261C110.414 53.9764 110.283 53.4712 110.283 52.9104C110.283 52.3497 110.414 51.8444 110.675 51.3947C110.941 50.945 111.307 50.5925 111.774 50.3371C112.246 50.0761 112.77 49.9457 113.348 49.9457C113.925 49.9457 114.444 50.0734 114.905 50.3288C115.371 50.5841 115.738 50.9395 116.004 51.3947C116.271 51.8444 116.404 52.3497 116.404 52.9104C116.404 53.4712 116.271 53.9792 116.004 54.4344C115.738 54.8841 115.371 55.2367 114.905 55.4921C114.444 55.7475 113.925 55.8752 113.348 55.8752ZM113.348 55.3255C113.809 55.3255 114.225 55.2228 114.597 55.0174C114.969 54.8064 115.26 54.5177 115.471 54.1513C115.682 53.7793 115.788 53.3657 115.788 52.9104C115.788 52.4552 115.682 52.0443 115.471 51.6779C115.26 51.3059 114.969 51.0172 114.597 50.8118C114.225 50.6008 113.809 50.4953 113.348 50.4953C112.887 50.4953 112.468 50.6008 112.09 50.8118C111.718 51.0172 111.424 51.3059 111.207 51.6779C110.997 52.0443 110.891 52.4552 110.891 52.9104C110.891 53.3657 110.997 53.7793 111.207 54.1513C111.424 54.5177 111.718 54.8064 112.09 55.0174C112.468 55.2228 112.887 55.3255 113.348 55.3255ZM121.581 50.5286H118.474L118.483 55.8252H117.875V49.9956H121.581V50.5286ZM124.408 55.8752C123.831 55.8752 123.306 55.7475 122.834 55.4921C122.368 55.2311 122.002 54.8758 121.735 54.4261C121.474 53.9764 121.344 53.4712 121.344 52.9104C121.344 52.3497 121.474 51.8444 121.735 51.3947C122.002 50.945 122.368 50.5925 122.834 50.3371C123.306 50.0761 123.831 49.9457 124.408 49.9457C124.986 49.9457 125.505 50.0734 125.966 50.3288C126.432 50.5841 126.798 50.9395 127.065 51.3947C127.331 51.8444 127.465 52.3497 127.465 52.9104C127.465 53.4712 127.331 53.9792 127.065 54.4344C126.798 54.8841 126.432 55.2367 125.966 55.4921C125.505 55.7475 124.986 55.8752 124.408 55.8752ZM124.408 55.3255C124.869 55.3255 125.286 55.2228 125.657 55.0174C126.029 54.8064 126.321 54.5177 126.532 54.1513C126.743 53.7793 126.848 53.3657 126.848 52.9104C126.848 52.4552 126.743 52.0443 126.532 51.6779C126.321 51.3059 126.029 51.0172 125.657 50.8118C125.286 50.6008 124.869 50.4953 124.408 50.4953C123.947 50.4953 123.528 50.6008 123.151 50.8118C122.779 51.0172 122.485 51.3059 122.268 51.6779C122.057 52.0443 121.952 52.4552 121.952 52.9104C121.952 53.3657 122.057 53.7793 122.268 54.1513C122.485 54.5177 122.779 54.8064 123.151 55.0174C123.528 55.2228 123.947 55.3255 124.408 55.3255ZM136.02 49.9956V55.8252H135.412V50.5286H131.723V55.8252H131.115V49.9956H136.02ZM137.987 49.9956H138.595V54.8258L142.326 49.9956H142.884V55.8252H142.276V51.0033L138.545 55.8252H137.987V49.9956ZM148.665 50.5286H146.617V55.8252H146.009V50.5286H143.96V49.9956H148.665V50.5286ZM153.185 54.2679H149.937L149.238 55.8252H148.596L151.261 49.9956H151.869L154.534 55.8252H153.885L153.185 54.2679ZM152.96 53.7682L151.561 50.6369L150.162 53.7682H152.96ZM160.523 49.9956V55.8252H159.915V53.1353H156.268V55.8252H155.651V49.9956H156.268V52.594H159.915V49.9956H160.523ZM162.491 49.9956H163.099V54.8258L166.83 49.9956H167.388V55.8252H166.78V51.0033L163.049 55.8252H162.491V49.9956ZM173.486 49.9956V55.8252H172.878V54.0597H171.137C171.059 54.0597 170.948 54.0541 170.804 54.043L169.58 55.8252H168.922L170.246 53.9348C169.819 53.8071 169.491 53.5822 169.263 53.2602C169.036 52.9326 168.922 52.5329 168.922 52.061C168.922 51.4058 169.127 50.8978 169.538 50.537C169.955 50.1761 170.515 49.9956 171.22 49.9956H173.486ZM169.538 52.0443C169.538 52.5218 169.677 52.891 169.955 53.1519C170.238 53.4073 170.649 53.535 171.187 53.535H172.878V50.5286H171.245C170.701 50.5286 170.279 50.6591 169.98 50.92C169.685 51.1754 169.538 51.5502 169.538 52.0443Z" fill="#D0FACE"/>
<g clip-path="url(#clip1_591_435)">
<path fill-rule="evenodd" clip-rule="evenodd" d="M161.496 1.02643C156.686 1.14363 152.12 2.96018 148.772 6.2417C145.302 9.58181 143.354 14.0939 143.354 18.8404C143.354 23.5868 145.302 28.0989 148.772 31.439C152.181 34.7206 156.686 36.5957 161.496 36.6543V34.369C161.496 34.3104 161.496 34.3104 161.557 34.3104L161.617 34.2518H161.861H162.104C162.165 34.2518 162.165 34.2518 162.165 34.3104L162.226 34.369V37.2403C162.226 37.2989 162.165 37.3575 162.104 37.3575H161.861C156.747 37.3575 151.877 35.4237 148.224 31.9078C144.571 28.3919 142.562 23.704 142.562 18.7818C142.562 13.8595 144.571 9.17162 148.224 5.65571C151.877 2.1398 156.747 0.206055 161.861 0.206055H162.104C162.165 0.206055 162.226 0.264653 162.226 0.323252V3.19458C162.226 3.25318 162.226 3.25318 162.165 3.25318L162.104 3.31177H161.861H161.617C161.557 3.31177 161.557 3.31177 161.557 3.25318L161.496 3.19458V1.02643Z" fill="#D0FACE"/>
</g>
</g>
<defs>
<clipPath id="clip0_591_435">
<rect width="175" height="58" fill="white"/>
</clipPath>
<clipPath id="clip1_591_435">
<rect width="19.6637" height="37.0928" fill="white" transform="translate(142.562 0.323242)"/>
</clipPath>
</defs>
</svg>
