<svg width="344" height="115" viewBox="0 0 344 115" fill="none" xmlns="http://www.w3.org/2000/svg">
<g clip-path="url(#clip0_107_297)">
<path d="M343.135 54.6926C343.486 54.1114 343.603 53.5301 343.369 52.8326C343.135 52.2513 342.783 51.7863 342.08 51.5538L338.214 50.1587C337.98 50.0425 337.629 49.9262 337.16 49.9262C335.988 49.9262 335.168 50.3912 334.465 51.205C330.131 56.9014 324.273 59.8078 317.01 59.8078C310.801 59.8078 305.529 57.7152 301.312 53.4138C297.094 49.1124 294.986 43.7648 294.986 37.3708C294.986 30.9768 297.094 25.6292 301.312 21.444C305.529 17.1426 310.684 15.0501 317.01 15.0501C324.273 15.0501 330.131 17.9564 334.465 23.6528C335.168 24.5829 335.988 25.0479 337.16 25.0479C337.394 25.0479 337.746 24.9316 338.214 24.8154L342.08 23.3041C342.783 23.0716 343.252 22.6066 343.369 22.0253C343.603 21.444 343.486 20.7465 343.135 20.1652C340.323 15.8638 336.691 12.6087 332.122 10.1674C327.554 7.72606 322.516 6.44727 317.01 6.44727C308.107 6.44727 300.726 9.35361 294.751 15.2826C288.777 21.2115 285.848 28.5355 285.848 37.3708C285.848 46.2061 288.777 53.6463 294.751 59.459C300.726 65.388 308.107 68.2943 317.01 68.2943C322.516 68.2943 327.554 67.0155 332.24 64.5742C336.691 62.2491 340.44 58.8778 343.135 54.6926ZM229.264 7.6098C228.561 7.6098 228.093 7.84231 227.858 8.30733C227.624 8.77234 227.624 9.23736 227.975 9.81863L252.343 52.135C249.414 56.7852 245.782 59.1103 241.565 59.1103H238.636C237.933 59.1103 237.347 59.3428 236.879 59.8078C236.41 60.2728 236.176 60.9703 236.176 61.6679V64.8067C236.176 65.5042 236.41 66.0855 236.879 66.5505C237.347 67.0155 237.933 67.248 238.636 67.248H242.151C250.585 67.248 257.146 62.2491 261.832 52.3675L282.216 9.81863C282.568 9.1211 282.568 8.65609 282.216 8.19107C281.982 7.72606 281.513 7.49355 280.693 7.49355H276.359C274.601 7.49355 273.43 8.30733 272.727 9.81863L256.912 43.0672L237.699 9.81863C236.879 8.30733 235.59 7.6098 233.95 7.6098H229.264ZM201.148 38.4171C204.194 38.4171 206.654 39.4634 208.646 41.3234C210.637 43.2997 211.574 45.7411 211.574 48.7637C211.574 51.67 210.52 54.2276 208.646 56.2039C206.654 58.1802 204.194 59.2265 201.148 59.2265H183.575V38.4171H201.148ZM177.249 67.3643H201.148C206.771 67.3643 211.457 65.6205 215.323 62.0166C219.072 58.529 220.946 53.9951 220.946 48.7637C220.946 43.416 219.072 38.9984 215.323 35.5107C211.574 32.0231 206.888 30.1631 201.148 30.1631H183.575V15.8638H212.98C213.683 15.8638 214.269 15.6313 214.737 15.1663C215.206 14.7013 215.44 14.0038 215.44 13.3062V10.0511C215.44 9.35361 215.206 8.77234 214.737 8.30733C214.269 7.84231 213.683 7.6098 212.98 7.6098H177.249C176.546 7.6098 175.96 7.84231 175.375 8.30733C174.906 8.77234 174.672 9.35361 174.672 10.0511V64.8067C174.672 65.5042 174.906 66.0855 175.375 66.5505C175.96 67.1318 176.546 67.3643 177.249 67.3643ZM36.7853 61.0866V65.5042C36.7853 66.0855 37.0196 66.4343 37.3711 66.783C37.7225 67.1318 38.1912 67.3643 38.7769 67.3643H39.1284C51.312 67.3643 57.4039 57.134 57.4039 36.6733V15.8638H82.9427V64.923C82.9427 65.6205 83.177 66.2018 83.6457 66.6668C84.1143 67.1318 84.7 67.3643 85.4029 67.3643H89.2689C89.9718 67.3643 90.5575 67.1318 91.1433 66.6668C91.6119 66.2018 91.8462 65.6205 91.8462 64.923V10.0511C91.8462 9.35361 91.6119 8.77234 91.1433 8.30733C90.6747 7.84231 89.9718 7.6098 89.2689 7.6098H51.0777C50.3748 7.6098 49.7891 7.84231 49.2033 8.30733C48.7347 8.77234 48.5004 9.35361 48.5004 10.0511V36.557C48.5004 45.0436 47.6804 50.8562 46.0403 54.1114C44.4001 57.3665 42.0571 58.994 39.1284 58.994H38.7769C38.1912 58.994 37.8397 59.2265 37.3711 59.5753C37.0196 60.0403 36.7853 60.5053 36.7853 61.0866ZM0 10.0511V64.8067C0 65.5042 0.234302 66.0855 0.702905 66.5505C1.17151 67.0155 1.87441 67.248 2.57732 67.248H6.44329C7.1462 67.248 7.73195 67.0155 8.20055 66.5505C8.66916 66.0855 8.90346 65.5042 8.90346 64.8067V15.8638H36.3167C37.1368 15.8638 37.7225 15.6313 38.1912 15.1663C38.6598 14.7013 38.8941 14.0038 38.8941 13.3062V10.0511C38.8941 9.35361 38.6598 8.77234 38.1912 8.30733C37.7225 7.84231 37.0196 7.6098 36.3167 7.6098H2.57732C1.87441 7.6098 1.28866 7.84231 0.702905 8.30733C0.234302 8.77234 0 9.35361 0 10.0511Z" fill="#368733"/>
<path fill-rule="evenodd" clip-rule="evenodd" d="M135.777 18.0725C136.48 17.2587 137.3 16.4449 137.886 15.6312C135.543 15.0499 133.2 14.8174 130.857 14.9336C131.56 15.2824 132.145 15.6312 132.848 15.9799C133.903 16.6774 134.84 17.375 135.777 18.0725ZM128.162 15.3987C126.171 15.8637 124.179 16.5612 122.305 17.6075L126.757 25.164C129.451 23.5364 132.145 21.6764 134.371 19.4675C134.488 19.3513 134.606 19.235 134.723 19.1188C133.903 18.4213 132.966 17.84 132.028 17.2587C130.857 16.4449 129.568 15.8637 128.162 15.3987ZM116.213 29.6979C116.33 29.6979 116.564 29.5816 116.682 29.5816C119.727 28.6516 122.656 27.3728 125.468 25.8615L121.016 18.305C119.259 19.3513 117.619 20.6301 116.213 22.1414C115.979 23.5364 115.979 25.0477 115.979 26.4428C115.979 27.6053 116.096 28.6516 116.213 29.6979ZM126.288 27.1403C123.359 28.7678 120.313 30.0466 117.15 30.9767C116.916 31.0929 116.682 31.0929 116.447 31.2092C117.267 35.3943 118.907 39.5795 121.016 43.2996L131.911 37.0219L126.288 27.1403ZM135.894 20.0488C135.777 20.1651 135.543 20.3976 135.426 20.5138C133.083 22.7226 130.388 24.699 127.459 26.4428L133.2 36.3244L144.095 30.0466C141.986 26.3265 139.175 22.8389 135.894 20.0488ZM136.831 19.0025C140.229 21.9089 143.04 25.5127 145.266 29.2329L151.241 25.7452C148.429 21.0951 144.446 17.7237 139.175 15.9799C138.589 17.1425 137.769 18.0725 136.831 19.0025ZM115.159 31.4417C113.87 31.7905 112.581 32.023 111.293 32.1392C110.121 37.4869 111.175 42.6021 113.753 47.3685L119.845 43.8809C117.736 40.0445 115.979 35.7431 115.159 31.4417ZM150.772 42.9508C152.061 42.6021 153.35 42.3695 154.638 42.2533C155.693 36.9056 154.756 31.7904 152.178 27.024L146.086 30.5117C148.195 34.348 149.952 38.5332 150.772 42.9508ZM139.643 47.2522C142.572 45.6247 145.618 44.3459 148.781 43.4158C149.015 43.2996 149.249 43.2996 149.484 43.1833C148.664 38.9982 147.024 34.813 144.915 31.0929L134.02 37.3706L139.643 47.2522ZM130.037 54.3437C130.271 54.1112 130.388 53.9949 130.623 53.7624C132.966 51.5536 135.66 49.5773 138.472 47.9497L132.731 38.0682L121.836 44.3459C123.945 48.066 126.757 51.5536 130.037 54.3437ZM126.522 58.2963C127.342 57.25 128.162 56.32 128.982 55.2737C125.585 52.3674 122.773 48.7635 120.548 45.0434L114.456 48.531C117.384 53.1812 121.25 56.5525 126.522 58.2963ZM135.074 59.3426C134.371 58.9939 133.786 58.6451 133.083 58.2963C132.028 57.7151 131.091 57.0175 130.154 56.2038C129.451 57.0175 128.631 57.8313 128.045 58.7613C130.271 59.3426 132.614 59.5751 135.074 59.3426ZM139.057 49.2285C136.363 50.8561 133.786 52.7161 131.443 54.925C131.325 55.0412 131.208 55.1575 130.974 55.2737C131.794 55.9713 132.731 56.5525 133.668 57.1338C134.957 57.8313 136.246 58.5288 137.652 58.9939C139.643 58.5288 141.635 57.8313 143.509 56.785L139.057 49.2285ZM149.601 44.5784C149.367 44.5784 149.249 44.6946 149.015 44.6946C145.969 45.6247 143.04 46.9035 140.229 48.4147L144.681 55.9712C146.438 54.925 148.078 53.6462 149.484 52.0186C149.718 50.6236 149.835 49.1123 149.835 47.7172C149.952 46.7872 149.835 45.7409 149.601 44.5784ZM154.287 43.6483C153.233 43.7646 152.061 43.9971 151.007 44.2296C151.241 45.3922 151.358 46.5547 151.358 47.8335C151.358 48.531 151.358 49.3448 151.358 50.0423C152.647 48.066 153.584 45.9734 154.287 43.6483ZM114.573 24.2339C113.167 26.2103 112.23 28.3028 111.527 30.6279C112.581 30.5117 113.753 30.2792 114.807 30.0466C114.573 28.8841 114.456 27.7216 114.456 26.4428C114.573 25.7452 114.573 25.0477 114.573 24.2339ZM116.682 10.6322L114.573 6.91212C106.607 11.6785 100.866 19.1188 98.406 28.0703C95.9459 37.1381 97.2345 46.7872 101.921 54.925C106.724 63.0627 114.456 68.9917 123.593 71.433C132.497 73.7581 141.986 72.5956 150.07 68.2942L147.961 64.574C140.58 68.6429 132.848 69.8055 124.765 67.5966C116.33 65.3878 110.121 60.2726 105.787 52.8324C101.452 45.3921 100.046 37.4869 102.389 29.1166C104.498 20.9788 109.418 14.9336 116.682 10.6322ZM149.249 63.7603L152.061 68.5267C152.178 68.6429 152.061 68.7592 151.944 68.7592L151.475 68.9917C142.923 73.8743 132.848 75.1531 123.359 72.7118C113.87 70.1542 105.787 63.9928 100.866 55.5062C95.9459 47.0197 94.6572 37.0219 97.1174 27.6053C99.6947 18.1887 105.904 10.1672 114.456 5.28457L114.807 5.05206C114.924 4.93581 115.041 5.05206 115.041 5.16831L117.736 9.93472C125.116 5.86584 132.848 4.7033 141.049 6.91212C149.484 9.12095 155.693 14.2361 160.144 21.6764C164.479 29.1166 165.768 37.0219 163.542 45.3922C161.316 53.4137 156.396 59.4589 149.249 63.7603Z" fill="#368733"/>
<path d="M9.26561 106.95H2.88118L1.50607 110.012H0.245555L5.48406 98.5525H6.6791L11.9176 110.012H10.6407L9.26561 106.95ZM8.82362 105.968L6.0734 99.813L3.32318 105.968H8.82362ZM18.9794 110.11C17.8444 110.11 16.813 109.859 15.8854 109.357C14.9686 108.844 14.2483 108.145 13.7245 107.262C13.2115 106.378 12.9551 105.384 12.9551 104.282C12.9551 103.18 13.2115 102.187 13.7245 101.303C14.2483 100.419 14.9686 99.7257 15.8854 99.2237C16.813 98.7107 17.8444 98.4543 18.9794 98.4543C20.1144 98.4543 21.1348 98.7053 22.0406 99.2073C22.9574 99.7093 23.6777 100.408 24.2015 101.303C24.7254 102.187 24.9873 103.18 24.9873 104.282C24.9873 105.384 24.7254 106.383 24.2015 107.278C23.6777 108.162 22.9574 108.855 22.0406 109.357C21.1348 109.859 20.1144 110.11 18.9794 110.11ZM18.9794 109.029C19.8852 109.029 20.7037 108.828 21.4349 108.424C22.1661 108.009 22.7391 107.442 23.1538 106.721C23.5685 105.99 23.7759 105.177 23.7759 104.282C23.7759 103.387 23.5685 102.58 23.1538 101.859C22.7391 101.128 22.1661 100.561 21.4349 100.157C20.7037 99.7421 19.8852 99.5347 18.9794 99.5347C18.0735 99.5347 17.2496 99.7421 16.5074 100.157C15.7762 100.561 15.1978 101.128 14.7722 101.859C14.3575 102.58 14.1501 103.387 14.1501 104.282C14.1501 105.177 14.3575 105.99 14.7722 106.721C15.1978 107.442 15.7762 108.009 16.5074 108.424C17.2496 108.828 18.0735 109.029 18.9794 109.029ZM35.9604 104.757H33.3411V110.012H32.1625V98.5525H33.3411V103.693H35.9604L39.8402 98.5525H41.1498L36.8935 104.118L41.3954 110.012H40.0039L35.9604 104.757ZM48.2669 110.11C47.1319 110.11 46.1006 109.859 45.1729 109.357C44.2562 108.844 43.5359 108.145 43.0121 107.262C42.4991 106.378 42.2426 105.384 42.2426 104.282C42.2426 103.18 42.4991 102.187 43.0121 101.303C43.5359 100.419 44.2562 99.7257 45.1729 99.2237C46.1006 98.7107 47.1319 98.4543 48.2669 98.4543C49.4019 98.4543 50.4224 98.7053 51.3282 99.2073C52.2449 99.7093 52.9652 100.408 53.4891 101.303C54.0129 102.187 54.2748 103.18 54.2748 104.282C54.2748 105.384 54.0129 106.383 53.4891 107.278C52.9652 108.162 52.2449 108.855 51.3282 109.357C50.4224 109.859 49.4019 110.11 48.2669 110.11ZM48.2669 109.029C49.1728 109.029 49.9913 108.828 50.7225 108.424C51.4537 108.009 52.0267 107.442 52.4414 106.721C52.8561 105.99 53.0634 105.177 53.0634 104.282C53.0634 103.387 52.8561 102.58 52.4414 101.859C52.0267 101.128 51.4537 100.561 50.7225 100.157C49.9913 99.7421 49.1728 99.5347 48.2669 99.5347C47.3611 99.5347 46.5371 99.7421 45.795 100.157C45.0638 100.561 44.4854 101.128 44.0598 101.859C43.645 102.58 43.4377 103.387 43.4377 104.282C43.4377 105.177 43.645 105.99 44.0598 106.721C44.4854 107.442 45.0638 108.009 45.795 108.424C46.5371 108.828 47.3611 109.029 48.2669 109.029ZM69.0669 98.5525V110.012H67.9046V100.844L63.4027 108.555H62.8298L58.3279 100.893V110.012H57.1656V98.5525H58.1642L63.1408 107.049L68.0683 98.5525H69.0669ZM72.9285 98.5525H81.3101V99.5838H74.1235V103.333H77.8723C79.2256 103.333 80.2515 103.611 80.9499 104.168C81.6593 104.724 82.014 105.532 82.014 106.59C82.014 107.693 81.632 108.538 80.8681 109.128C80.115 109.717 79.0291 110.012 77.6104 110.012H72.9285V98.5525ZM77.594 109.046C78.6526 109.046 79.4493 108.844 79.9841 108.44C80.5298 108.036 80.8026 107.436 80.8026 106.639C80.8026 105.854 80.5352 105.27 80.0005 104.888C79.4766 104.495 78.6745 104.298 77.594 104.298H74.1235V109.046H77.594ZM84.8225 98.5525H86.0176V108.047L93.3515 98.5525H94.4483V110.012H93.2533V100.533L85.9194 110.012H84.8225V98.5525ZM107.892 98.5525V110.012H106.697V104.724H99.5267V110.012H98.3153V98.5525H99.5267V103.66H106.697V98.5525H107.892ZM119.094 106.95H112.71L111.334 110.012H110.074L115.312 98.5525H116.507L121.746 110.012H120.469L119.094 106.95ZM118.652 105.968L115.902 99.813L113.152 105.968H118.652ZM130.864 99.6002H126.837V110.012H125.642V99.6002H121.615V98.5525H130.864V99.6002ZM151.321 98.5525V110.012H137.275V98.5525H138.47V108.964H143.708V98.5525H144.903V108.964H150.125V98.5525H151.321ZM158.978 104.757H156.359V110.012H155.18V98.5525H156.359V103.693H158.978L162.858 98.5525H164.167L159.911 104.118L164.413 110.012H163.021L158.978 104.757ZM171.284 110.11C170.149 110.11 169.118 109.859 168.19 109.357C167.274 108.844 166.553 108.145 166.029 107.262C165.516 106.378 165.26 105.384 165.26 104.282C165.26 103.18 165.516 102.187 166.029 101.303C166.553 100.419 167.274 99.7257 168.19 99.2237C169.118 98.7107 170.149 98.4543 171.284 98.4543C172.419 98.4543 173.44 98.7053 174.346 99.2073C175.262 99.7093 175.983 100.408 176.506 101.303C177.03 102.187 177.292 103.18 177.292 104.282C177.292 105.384 177.03 106.383 176.506 107.278C175.983 108.162 175.262 108.855 174.346 109.357C173.44 109.859 172.419 110.11 171.284 110.11ZM171.284 109.029C172.19 109.029 173.009 108.828 173.74 108.424C174.471 108.009 175.044 107.442 175.459 106.721C175.873 105.99 176.081 105.177 176.081 104.282C176.081 103.387 175.873 102.58 175.459 101.859C175.044 101.128 174.471 100.561 173.74 100.157C173.009 99.7421 172.19 99.5347 171.284 99.5347C170.378 99.5347 169.555 99.7421 168.812 100.157C168.081 100.561 167.503 101.128 167.077 101.859C166.662 102.58 166.455 103.387 166.455 104.282C166.455 105.177 166.662 105.99 167.077 106.721C167.503 107.442 168.081 108.009 168.812 108.424C169.555 108.828 170.378 109.029 171.284 109.029ZM188.851 98.5525V110.012H187.656V99.6002H182.122L181.991 103.431C181.937 105.013 181.806 106.29 181.599 107.262C181.402 108.222 181.096 108.942 180.682 109.422C180.267 109.892 179.716 110.126 179.028 110.126C178.734 110.126 178.428 110.088 178.112 110.012L178.21 108.931C178.395 108.975 178.575 108.997 178.75 108.997C179.23 108.997 179.618 108.806 179.912 108.424C180.218 108.042 180.447 107.452 180.6 106.656C180.753 105.848 180.856 104.784 180.911 103.464L181.075 98.5525H188.851ZM197.513 102.645C198.866 102.645 199.898 102.951 200.607 103.562C201.327 104.173 201.687 105.068 201.687 106.247C201.687 107.48 201.306 108.418 200.542 109.062C199.789 109.695 198.697 110.012 197.267 110.012H192.717V98.5525H193.912V102.645H197.513ZM197.235 109.046C198.293 109.046 199.096 108.811 199.641 108.342C200.198 107.873 200.476 107.18 200.476 106.263C200.476 104.506 199.396 103.627 197.235 103.627H193.912V109.046H197.235ZM213.915 98.5525V110.012H212.72V104.724H205.55V110.012H204.339V98.5525H205.55V103.66H212.72V98.5525H213.915ZM222.809 110.11C221.674 110.11 220.643 109.859 219.715 109.357C218.799 108.844 218.078 108.145 217.554 107.262C217.041 106.378 216.785 105.384 216.785 104.282C216.785 103.18 217.041 102.187 217.554 101.303C218.078 100.419 218.799 99.7257 219.715 99.2237C220.643 98.7107 221.674 98.4543 222.809 98.4543C223.944 98.4543 224.965 98.7053 225.871 99.2073C226.787 99.7093 227.508 100.408 228.031 101.303C228.555 102.187 228.817 103.18 228.817 104.282C228.817 105.384 228.555 106.383 228.031 107.278C227.508 108.162 226.787 108.855 225.871 109.357C224.965 109.859 223.944 110.11 222.809 110.11ZM222.809 109.029C223.715 109.029 224.534 108.828 225.265 108.424C225.996 108.009 226.569 107.442 226.984 106.721C227.398 105.99 227.606 105.177 227.606 104.282C227.606 103.387 227.398 102.58 226.984 101.859C226.569 101.128 225.996 100.561 225.265 100.157C224.534 99.7421 223.715 99.5347 222.809 99.5347C221.903 99.5347 221.08 99.7421 220.337 100.157C219.606 100.561 219.028 101.128 218.602 101.859C218.187 102.58 217.98 103.387 217.98 104.282C217.98 105.177 218.187 105.99 218.602 106.721C219.028 107.442 219.606 108.009 220.337 108.424C221.08 108.828 221.903 109.029 222.809 109.029ZM238.993 99.6002H232.887L232.903 110.012H231.708V98.5525H238.993V99.6002ZM244.551 110.11C243.416 110.11 242.385 109.859 241.457 109.357C240.54 108.844 239.82 108.145 239.296 107.262C238.783 106.378 238.527 105.384 238.527 104.282C238.527 103.18 238.783 102.187 239.296 101.303C239.82 100.419 240.54 99.7257 241.457 99.2237C242.385 98.7107 243.416 98.4543 244.551 98.4543C245.686 98.4543 246.707 98.7053 247.612 99.2073C248.529 99.7093 249.249 100.408 249.773 101.303C250.297 102.187 250.559 103.18 250.559 104.282C250.559 105.384 250.297 106.383 249.773 107.278C249.249 108.162 248.529 108.855 247.612 109.357C246.707 109.859 245.686 110.11 244.551 110.11ZM244.551 109.029C245.457 109.029 246.276 108.828 247.007 108.424C247.738 108.009 248.311 107.442 248.726 106.721C249.14 105.99 249.348 105.177 249.348 104.282C249.348 103.387 249.14 102.58 248.726 101.859C248.311 101.128 247.738 100.561 247.007 100.157C246.276 99.7421 245.457 99.5347 244.551 99.5347C243.645 99.5347 242.821 99.7421 242.079 100.157C241.348 100.561 240.77 101.128 240.344 101.859C239.929 102.58 239.722 103.387 239.722 104.282C239.722 105.177 239.929 105.99 240.344 106.721C240.77 107.442 241.348 108.009 242.079 108.424C242.821 108.828 243.645 109.029 244.551 109.029ZM267.376 98.5525V110.012H266.181V99.6002H258.929V110.012H257.734V98.5525H267.376ZM271.243 98.5525H272.438V108.047L279.772 98.5525H280.869V110.012H279.674V100.533L272.34 110.012H271.243V98.5525ZM292.233 99.6002H288.206V110.012H287.011V99.6002H282.984V98.5525H292.233V99.6002ZM301.118 106.95H294.734L293.359 110.012H292.098L297.337 98.5525H298.532L303.77 110.012H302.493L301.118 106.95ZM300.676 105.968L297.926 99.813L295.176 105.968H300.676ZM315.543 98.5525V110.012H314.348V104.724H307.177V110.012H305.966V98.5525H307.177V103.66H314.348V98.5525H315.543ZM319.411 98.5525H320.606V108.047L327.94 98.5525H329.037V110.012H327.842V100.533L320.508 110.012H319.411V98.5525ZM341.023 98.5525V110.012H339.828V106.541H336.407C336.254 106.541 336.036 106.53 335.752 106.508L333.346 110.012H332.052L334.655 106.296C333.815 106.045 333.171 105.603 332.723 104.97C332.276 104.326 332.052 103.54 332.052 102.612C332.052 101.325 332.456 100.326 333.264 99.6166C334.082 98.9072 335.184 98.5525 336.571 98.5525H341.023ZM333.264 102.58C333.264 103.518 333.537 104.244 334.082 104.757C334.639 105.259 335.446 105.51 336.505 105.51H339.828V99.6002H336.62C335.55 99.6002 334.721 99.8566 334.131 100.37C333.553 100.872 333.264 101.608 333.264 102.58Z" fill="#368733"/>
<g clip-path="url(#clip1_107_297)">
<path fill-rule="evenodd" clip-rule="evenodd" d="M317.453 2.01742C308 2.24779 299.024 5.81862 292.443 12.2691C285.621 18.8348 281.792 27.7043 281.792 37.0345C281.792 46.3647 285.621 55.2342 292.443 61.7999C299.144 68.2504 308 71.9365 317.453 72.0516V67.5593C317.453 67.4441 317.453 67.4441 317.573 67.4441L317.693 67.3289H318.171H318.65C318.77 67.3289 318.77 67.3289 318.77 67.4441L318.889 67.5593V73.2035C318.889 73.3187 318.77 73.4339 318.65 73.4339H318.171C308.119 73.4339 298.546 69.6327 291.366 62.7214C284.185 55.8102 280.236 46.5951 280.236 36.9193C280.236 27.2436 284.185 18.0285 291.366 11.1173C298.546 4.20599 308.119 0.404785 318.171 0.404785H318.65C318.77 0.404785 318.889 0.519973 318.889 0.635161V6.27937C318.889 6.39455 318.889 6.39455 318.77 6.39455L318.65 6.50974H318.171H317.693C317.573 6.50974 317.573 6.50974 317.573 6.39455L317.453 6.27937V2.01742Z" fill="#368733"/>
</g>
</g>
<defs>
<clipPath id="clip0_107_297">
<rect width="344" height="114.012" fill="white"/>
</clipPath>
<clipPath id="clip1_107_297">
<rect width="38.6532" height="72.9139" fill="white" transform="translate(280.236 0.635254)"/>
</clipPath>
</defs>
</svg>
