<svg width="27" height="27" viewBox="0 0 27 27" fill="none" xmlns="http://www.w3.org/2000/svg">
<path d="M24.0752 7.65464L23.2184 6.79785L15.2819 14.7344C14.2898 15.7265 12.6213 15.7265 11.6293 14.7344L3.69272 6.84295L2.83594 7.69973L8.74324 13.607L2.83594 19.5143L3.69272 20.3711L9.60003 14.4638L10.7725 15.6363C11.494 16.3578 12.4409 16.7636 13.433 16.7636C14.4251 16.7636 15.3721 16.3578 16.0936 15.6363L17.266 14.4638L23.1733 20.3711L24.0301 19.5143L18.1228 13.607L24.0752 7.65464Z" fill="white"/>
<path d="M22.4053 21.9038H4.59317C3.55601 21.9038 2.69922 21.047 2.69922 20.0098V7.29336C2.69922 6.2562 3.55601 5.39941 4.59317 5.39941H22.4053C23.4424 5.39941 24.2992 6.2562 24.2992 7.29336V20.0098C24.2992 21.047 23.4424 21.9038 22.4053 21.9038ZM4.54807 6.61695C4.18732 6.61695 3.91676 6.88751 3.91676 7.24826V19.9648C3.91676 20.3255 4.18732 20.5961 4.54807 20.5961H22.3602C22.7209 20.5961 22.9915 20.3255 22.9915 19.9648V7.24826C22.9915 6.88751 22.7209 6.61695 22.3602 6.61695H4.54807Z" fill="white"/>
</svg>
