<svg width="27" height="27" viewBox="0 0 27 27" fill="none" xmlns="http://www.w3.org/2000/svg">
<rect x="4.08333" y="4.08333" width="6.07043" height="20.6298" rx="3.03521" stroke="#222222" stroke-width="1.16667"/>
<path d="M9.91536 6.41683H23.5794C24.4093 6.41683 25.082 7.08959 25.082 7.91948V21.2475C25.082 22.0774 24.4093 22.7502 23.5794 22.7502H9.91536V6.41683Z" stroke="#222222" stroke-width="1.16667"/>
<mask id="path-3-inside-1_485_1667" fill="white">
<rect x="12.4824" y="8.31006" width="9.66365" height="3.78883" rx="0.638567"/>
</mask>
<rect x="12.4824" y="8.31006" width="9.66365" height="3.78883" rx="0.638567" stroke="#222222" stroke-width="2.33333" mask="url(#path-3-inside-1_485_1667)"/>
<rect x="12.3125" y="13.4189" width="2.59684" height="1.16667" rx="0.583333" fill="#222222"/>
<rect x="12.3125" y="16.3989" width="2.59684" height="1.16667" rx="0.583333" fill="#222222"/>
<rect x="12.3125" y="19.3789" width="2.59684" height="1.16667" rx="0.583333" fill="#222222"/>
<rect x="16.0156" y="13.4189" width="2.59684" height="1.16667" rx="0.583333" fill="#222222"/>
<rect x="16.0156" y="16.3989" width="2.59684" height="1.16667" rx="0.583333" fill="#222222"/>
<rect x="16.0156" y="19.3789" width="2.59684" height="1.16667" rx="0.583333" fill="#222222"/>
<rect x="19.7617" y="13.4189" width="2.59684" height="1.16667" rx="0.583333" fill="#222222"/>
<rect x="19.7617" y="16.3989" width="2.59684" height="1.16667" rx="0.583333" fill="#222222"/>
<rect x="19.7617" y="19.3789" width="2.59684" height="1.16667" rx="0.583333" fill="#222222"/>
</svg>
