<svg width="24" height="24" viewBox="0 0 24 24" fill="none" xmlns="http://www.w3.org/2000/svg">
<path d="M23 10.1043V10.8629C23 11.0641 22.9201 11.2571 22.7778 11.3994C22.6355 11.5416 22.4426 11.6216 22.2414 11.6216H21.8621C21.6609 11.6216 21.4679 11.7015 21.3256 11.8438C21.1834 11.986 21.1034 12.179 21.1034 12.3802V20.725C21.1034 21.3286 20.8637 21.9075 20.4369 22.3343C20.0101 22.7611 19.4312 23.0009 18.8276 23.0009H5.17241C4.56882 23.0009 3.98994 22.7611 3.56314 22.3343C3.13633 21.9075 2.89655 21.3286 2.89655 20.725V12.3802C2.89655 12.179 2.81663 11.986 2.67436 11.8438C2.53209 11.7015 2.33913 11.6216 2.13793 11.6216H1.75862C1.55742 11.6216 1.36446 11.5416 1.22219 11.3994C1.07993 11.2571 1 11.0641 1 10.8629V10.1043C1 9.90313 1.07993 9.71017 1.22219 9.5679C1.36446 9.42563 1.55742 9.3457 1.75862 9.3457H22.2414C22.4426 9.3457 22.6355 9.42563 22.7778 9.5679C22.9201 9.71017 23 9.90313 23 10.1043Z" stroke="#222222" stroke-width="0.482759" stroke-linejoin="round"/>
<path d="M2.89648 14.2773C4.71717 14.2773 4.71717 15.7946 6.53786 15.7946C8.35855 15.7946 8.35855 14.2773 10.1792 14.2773C11.9999 14.2773 11.9961 15.7946 13.8168 15.7946C15.6375 15.7946 15.6375 14.2773 17.462 14.2773C19.2865 14.2773 19.2827 15.7946 21.1034 15.7946" stroke="#222222" stroke-width="0.482759" stroke-linejoin="round"/>
<path d="M10.1033 18.068C10.5223 18.068 10.862 17.7284 10.862 17.3094C10.862 16.8904 10.5223 16.5508 10.1033 16.5508C9.68437 16.5508 9.34473 16.8904 9.34473 17.3094C9.34473 17.7284 9.68437 18.068 10.1033 18.068Z" stroke="#222222" stroke-width="0.482759" stroke-linejoin="round"/>
<path d="M13.1381 19.9657C13.3476 19.9657 13.5174 19.7958 13.5174 19.5863C13.5174 19.3769 13.3476 19.207 13.1381 19.207C12.9286 19.207 12.7588 19.3769 12.7588 19.5863C12.7588 19.7958 12.9286 19.9657 13.1381 19.9657Z" fill="#222222"/>
<path d="M16.552 19.2055C17.1805 19.2055 17.6899 18.6961 17.6899 18.0676C17.6899 17.4392 17.1805 16.9297 16.552 16.9297C15.9235 16.9297 15.4141 17.4392 15.4141 18.0676C15.4141 18.6961 15.9235 19.2055 16.552 19.2055Z" stroke="#222222" stroke-width="0.482759" stroke-miterlimit="10"/>
<path d="M22.2069 6.64485C22.0817 5.1883 17.9131 4.36899 12.8948 4.79003C7.87655 5.21106 3.90896 6.75485 4.03413 8.20761L4.06448 8.58692L22.241 7.02037L22.2069 6.64485Z" stroke="#222222" stroke-width="0.482759" stroke-linejoin="round"/>
<path d="M11.3775 4.91731C11.3433 4.51491 11.4704 4.11541 11.7307 3.80668C11.9911 3.49796 12.3634 3.3053 12.7658 3.2711C13.1682 3.2369 13.5677 3.36395 13.8764 3.6243C14.1852 3.88465 14.3778 4.25698 14.412 4.65938" stroke="#222222" stroke-width="0.482759" stroke-linejoin="round"/>
<path d="M5.17241 4.41379C5.37361 4.41379 5.56657 4.33387 5.70884 4.1916C5.85111 4.04933 5.93103 3.85637 5.93103 3.65517C5.93103 3.45397 5.85111 3.26102 5.70884 3.11875C5.56657 2.97648 5.37361 2.89655 5.17241 2.89655C4.97121 2.89655 4.77826 2.81663 4.63599 2.67436C4.49372 2.53209 4.41379 2.33913 4.41379 2.13793C4.41379 1.83613 4.2939 1.5467 4.0805 1.33329C3.8671 1.11989 3.57766 1 3.27586 1C2.97406 1 2.68463 1.11989 2.47122 1.33329C2.25782 1.5467 2.13793 1.83613 2.13793 2.13793C1.83613 2.13793 1.5467 2.25782 1.33329 2.47122C1.11989 2.68463 1 2.97406 1 3.27586C1 3.57766 1.11989 3.8671 1.33329 4.0805C1.5467 4.2939 1.83613 4.41379 2.13793 4.41379C2.23853 4.41379 2.33501 4.45376 2.40614 4.52489C2.47728 4.59603 2.51724 4.6925 2.51724 4.7931L2.89655 7.06897" stroke="#222222" stroke-width="0.482759" stroke-linecap="round" stroke-linejoin="round"/>
<path d="M21.8621 4.03482C22.2811 4.03482 22.6208 3.69517 22.6208 3.2762C22.6208 2.85722 22.2811 2.51758 21.8621 2.51758C21.4432 2.51758 21.1035 2.85722 21.1035 3.2762C21.1035 3.69517 21.4432 4.03482 21.8621 4.03482Z" stroke="#222222" stroke-width="0.482759" stroke-linecap="round" stroke-linejoin="round"/>
<path d="M19.9652 1.75862C20.1747 1.75862 20.3446 1.5888 20.3446 1.37931C20.3446 1.16982 20.1747 1 19.9652 1C19.7558 1 19.5859 1.16982 19.5859 1.37931C19.5859 1.5888 19.7558 1.75862 19.9652 1.75862Z" stroke="#222222" stroke-width="0.482759" stroke-linecap="round" stroke-linejoin="round"/>
</svg>
